<svg id="calendar_4_" data-name="calendar (4)" xmlns="http://www.w3.org/2000/svg" width="31.152" height="31.152" viewBox="0 0 31.152 31.152">
  <path id="Path_3" data-name="Path 3" d="M24.662,2.6h-1.3V1.3a1.3,1.3,0,1,0-2.6,0V2.6H10.384V1.3a1.3,1.3,0,1,0-2.6,0V2.6H6.49A6.5,6.5,0,0,0,0,9.086V24.662a6.5,6.5,0,0,0,6.49,6.49H24.662a6.5,6.5,0,0,0,6.49-6.49V9.086A6.5,6.5,0,0,0,24.662,2.6ZM2.6,9.086A3.894,3.894,0,0,1,6.49,5.192H24.662a3.894,3.894,0,0,1,3.894,3.894v1.3H2.6Zm22.066,19.47H6.49A3.894,3.894,0,0,1,2.6,24.662V12.98h25.96V24.662A3.894,3.894,0,0,1,24.662,28.556Z"/>
  <circle id="Ellipse_1" data-name="Ellipse 1" cx="1.947" cy="1.947" r="1.947" transform="translate(13.629 17.523)"/>
  <circle id="Ellipse_2" data-name="Ellipse 2" cx="1.947" cy="1.947" r="1.947" transform="translate(7.139 17.523)"/>
  <circle id="Ellipse_3" data-name="Ellipse 3" cx="1.947" cy="1.947" r="1.947" transform="translate(20.119 17.523)"/>
</svg>
