<svg id="Group_2659" data-name="Group 2659" xmlns="http://www.w3.org/2000/svg" xmlns:xlink="http://www.w3.org/1999/xlink" width="36" height="36" viewBox="0 0 57.555 57.555">
  <defs>
    <linearGradient id="linear-gradient" x1="-5.793" y1="6.189" x2="-4.888" y2="7.029" gradientUnits="objectBoundingBox">
      <stop offset="0" stop-color="#e00e48"/>
      <stop offset="0.159" stop-color="#e86514"/>
      <stop offset="0.322" stop-color="#fbda1b"/>
      <stop offset="0.506" stop-color="#47af6d"/>
      <stop offset="0.732" stop-color="#38b0e5"/>
      <stop offset="1" stop-color="#81549a"/>
    </linearGradient>
  </defs>
  <g id="instagram_2_" data-name="instagram (2)">
    <g id="Group_2654" data-name="Group 2654" transform="translate(44.111 10.65)">
      <g id="Group_2653" data-name="Group 2653">
        <path id="Path_6929" data-name="Path 6929" d="M393.8,94.739a1.4,1.4,0,1,0,1.4,1.4A1.4,1.4,0,0,0,393.8,94.739Z" transform="translate(-392.401 -94.739)" fill="url(#linear-gradient)"/>
      </g>
    </g>
    <g id="Group_2656" data-name="Group 2656" transform="translate(16.39 16.39)">
      <g id="Group_2655" data-name="Group 2655">
        <path id="Path_6930" data-name="Path 6930" d="M158.191,145.8a12.387,12.387,0,1,0,12.387,12.387A12.4,12.4,0,0,0,158.191,145.8Z" transform="translate(-145.804 -145.804)" fill="url(#linear-gradient)"/>
      </g>
    </g>
    <g id="Group_2658" data-name="Group 2658">
      <g id="Group_2657" data-name="Group 2657">
        <path id="Path_6931" data-name="Path 6931" d="M41.777,0h-26A15.8,15.8,0,0,0,0,15.778v26A15.8,15.8,0,0,0,15.778,57.555h26A15.8,15.8,0,0,0,57.555,41.777v-26A15.8,15.8,0,0,0,41.777,0Zm-13,44.564A15.786,15.786,0,1,1,44.564,28.777,15.8,15.8,0,0,1,28.777,44.564Zm16.73-27.72a4.8,4.8,0,1,1,4.8-4.8A4.8,4.8,0,0,1,45.508,16.843Z" fill="url(#linear-gradient)"/>
      </g>
    </g>
  </g>
</svg>
