<svg id="Group_2663" data-name="Group 2663" xmlns="http://www.w3.org/2000/svg" xmlns:xlink="http://www.w3.org/1999/xlink" width="42" height="29" viewBox="0 0 58.88 40.763">
  <defs>
    <linearGradient id="linear-gradient" y1="-0.118" x2="1" y2="1" gradientUnits="objectBoundingBox">
      <stop offset="0" stop-color="#e00e48"/>
      <stop offset="0.159" stop-color="#e86514"/>
      <stop offset="0.322" stop-color="#fbda1b"/>
      <stop offset="0.506" stop-color="#47af6d"/>
      <stop offset="0.732" stop-color="#38b0e5"/>
      <stop offset="1" stop-color="#81549a"/>
    </linearGradient>
  </defs>
  <g id="Icon_ionic-ios-mail" data-name="Icon ionic-ios-mail">
    <path id="Path_6932" data-name="Path 6932" d="M61.774,10.4,46.544,25.914a.274.274,0,0,0,0,.4L57.2,37.661a1.837,1.837,0,0,1,0,2.6,1.845,1.845,0,0,1-2.6,0L43.983,28.957a.29.29,0,0,0-.41,0l-2.59,2.633a11.4,11.4,0,0,1-8.124,3.425,11.625,11.625,0,0,1-8.294-3.524l-2.491-2.534a.29.29,0,0,0-.41,0L11.046,40.266a1.845,1.845,0,0,1-2.6,0,1.837,1.837,0,0,1,0-2.6L19.1,26.31a.3.3,0,0,0,0-.4L3.856,10.4a.279.279,0,0,0-.481.2v31.04A4.543,4.543,0,0,0,7.9,46.168H57.726a4.543,4.543,0,0,0,4.529-4.529V10.6A.283.283,0,0,0,61.774,10.4Z" transform="translate(-3.375 -5.405)" fill="url(#linear-gradient)"/>
    <path id="Path_6933" data-name="Path 6933" d="M31.953,33.791a7.7,7.7,0,0,0,5.534-2.321l22.208-22.6a4.448,4.448,0,0,0-2.8-.991H7.028a4.419,4.419,0,0,0-2.8.991l22.208,22.6A7.7,7.7,0,0,0,31.953,33.791Z" transform="translate(-2.513 -7.875)" fill="url(#linear-gradient)"/>
  </g>
</svg>
