<svg id="user_4_" data-name="user (4)" xmlns="http://www.w3.org/2000/svg" width="23.042" height="30.722" viewBox="0 0 23.042 30.722">
  <path id="Path_4" data-name="Path 4" d="M13.68,15.361A7.68,7.68,0,1,0,6,7.68a7.68,7.68,0,0,0,7.68,7.68Zm0-12.8A5.12,5.12,0,1,1,8.56,7.68a5.12,5.12,0,0,1,5.12-5.12Z" transform="translate(-2.16)"/>
  <path id="Path_5" data-name="Path 5" d="M14.521,14A11.534,11.534,0,0,0,3,25.521a1.28,1.28,0,1,0,2.56,0,8.961,8.961,0,1,1,17.921,0,1.28,1.28,0,0,0,2.56,0A11.534,11.534,0,0,0,14.521,14Z" transform="translate(-3 3.921)"/>
</svg>
