<svg id="Group_2661" data-name="Group 2661" xmlns="http://www.w3.org/2000/svg" xmlns:xlink="http://www.w3.org/1999/xlink" width="45" height="33" viewBox="0 0 62.427 43.709">
  <defs>
    <linearGradient id="linear-gradient" x1="0.041" y1="0.097" x2="0.949" y2="0.95" gradientUnits="objectBoundingBox">
      <stop offset="0" stop-color="#e00e48"/>
      <stop offset="0.159" stop-color="#e86514"/>
      <stop offset="0.322" stop-color="#fbda1b"/>
      <stop offset="0.506" stop-color="#47af6d"/>
      <stop offset="0.732" stop-color="#38b0e5"/>
      <stop offset="1" stop-color="#81549a"/>
    </linearGradient>
  </defs>
  <path id="youtube" d="M61.142.757a7.821,7.821,0,0,0-5.5-5.5C50.755-6.082,31.214-6.082,31.214-6.082s-19.54,0-24.425,1.286A7.979,7.979,0,0,0,1.286.757C0,5.642,0,15.773,0,15.773S0,25.954,1.286,30.788a7.822,7.822,0,0,0,5.5,5.5c4.936,1.337,24.426,1.337,24.426,1.337s19.54,0,24.425-1.286a7.821,7.821,0,0,0,5.5-5.5c1.285-4.885,1.285-15.015,1.285-15.015S62.479,5.642,61.142.757ZM24.992,25.131V6.414l16.249,9.359Zm0,0" transform="translate(-0.001 6.082)" fill="url(#linear-gradient)"/>
</svg>
